<?xml version="1.0" encoding="UTF-8" standalone="no"?>
<!DOCTYPE svg PUBLIC "-//W3C//DTD SVG 1.1//EN" "http://www.w3.org/Graphics/SVG/1.1/DTD/svg11.dtd">
<svg width="100%" height="100%" viewBox="0 0 325 125" version="1.1" xmlns="http://www.w3.org/2000/svg" xmlns:xlink="http://www.w3.org/1999/xlink" xml:space="preserve" xmlns:serif="http://www.serif.com/" style="fill-rule:evenodd;clip-rule:evenodd;stroke-linejoin:round;stroke-miterlimit:2;">
    <g id="アートボード1" transform="matrix(0.936367,0,0,0.958231,-175.522,-1226.88)">
        <rect x="187.45" y="1280.36" width="346.888" height="129.42" style="fill:none;"/>
        <g transform="matrix(3.70646,0,0,3.62188,28.6956,1097.46)">
            <path d="M59.774,85.164C64.918,83.702 68.441,79.414 68.441,74.166C68.441,67.789 62.876,62.619 56.01,62.619C49.145,62.619 43.579,67.789 43.579,74.166C43.579,80.544 49.145,85.714 56.01,85.714C56.438,85.714 56.861,85.693 57.278,85.655C57.826,85.603 57.804,85.669 57.917,85.669C59.747,85.603 62.552,84.983 63.142,84.808C66.938,83.69 70.175,82.122 72.691,79.745C74.425,78.107 76.02,76.354 76.942,73.954C80.974,63.449 73.342,55.943 66.012,52.994C63.896,52.144 60.489,51.227 57.44,51.212C58.698,51.325 61.002,51.919 62.67,52.715C65.472,54.05 68.213,56.505 69.706,59.14C74.463,67.534 72.278,77.179 65.485,82.423C63.967,83.595 62.718,84.361 59.856,85.234C59.663,85.284 59.56,85.243 59.56,85.243L59.774,85.164" style="fill:white;"/>
        </g>
        <g transform="matrix(3.70646,0,0,3.62188,28.6956,1097.46)">
            <path d="M55.362,79.004C55.118,78.934 55.144,79.029 54.325,78.473C53.508,77.914 53.351,76.766 53.351,76.766C53.351,76.766 53.438,71.321 53.299,70.546C53.098,69.429 52.237,68.829 51.427,68.866C50.461,68.911 50.034,69.488 49.695,69.915C49.356,70.342 49.19,71.308 49.19,71.308C49.19,71.308 49.155,75.574 49.164,76.079C49.173,76.583 49.138,76.941 48.955,77.532C48.772,78.124 48.171,78.586 48.171,78.586L48.006,78.368C48.006,78.368 48.729,77.774 48.82,77.163C48.911,76.554 48.901,76.209 48.901,75.995L48.901,71.386C48.901,71.386 48.914,70.565 49.5,69.818C50.087,69.071 50.633,68.646 51.57,68.638C52.507,68.63 53.373,69.41 53.557,70.23C53.664,70.702 53.649,70.906 53.649,70.906L53.649,76.78C53.649,76.78 53.824,77.58 54.335,78.075C54.845,78.57 55.295,78.7 55.431,78.73C55.499,78.746 55.772,78.807 55.988,78.801C56.203,78.795 56.453,78.746 56.523,78.73C56.659,78.7 57.107,78.57 57.615,78.075C58.123,77.58 58.272,76.78 58.272,76.78L58.297,70.906C58.297,70.906 58.282,70.702 58.389,70.23C58.572,69.41 59.435,68.63 60.368,68.638C61.301,68.646 61.846,69.071 62.43,69.818C63.014,70.565 63.026,71.386 63.026,71.386L63.026,75.995C63.026,76.209 63.016,76.554 63.107,77.163C63.198,77.774 63.918,78.368 63.918,78.368L63.753,78.586C63.753,78.586 63.154,78.124 62.972,77.532C62.79,76.941 62.756,76.583 62.764,76.079C62.773,75.574 62.738,71.308 62.738,71.308C62.738,71.308 62.573,70.342 62.236,69.915C61.897,69.488 61.472,68.911 60.51,68.866C59.704,68.829 58.846,69.429 58.647,70.546C58.508,71.321 58.594,76.766 58.594,76.766C58.594,76.766 58.439,77.914 57.624,78.473C56.808,79.029 56.835,78.934 56.592,79.004C56.226,79.108 55.76,79.117 55.362,79.004M63.268,79.239C63.268,79.239 62.514,78.646 62.286,77.914C62.057,77.184 61.981,77.153 61.996,76.43C62.011,75.706 61.981,71.204 61.981,71.204C61.981,71.204 61.979,70.542 61.453,70.085C60.928,69.627 60.77,69.682 60.61,69.682C60.45,69.682 60.099,69.666 59.779,70.063C59.459,70.457 59.445,70.613 59.422,70.841C59.391,71.153 59.407,72.195 59.407,72.195L59.414,76.69C59.414,76.69 59.483,77.047 59.064,77.931C58.645,78.814 58.012,79.272 57.677,79.477C57.342,79.682 56.74,79.911 56.367,79.919C55.994,79.926 55.934,79.926 55.561,79.919C55.188,79.911 54.586,79.682 54.251,79.477C53.916,79.272 53.283,78.814 52.864,77.931C52.445,77.047 52.54,76.69 52.54,76.69L52.522,72.195C52.522,72.195 52.537,71.153 52.507,70.841C52.484,70.613 52.456,70.457 52.136,70.063C51.817,69.666 51.478,69.682 51.318,69.682C51.158,69.682 51,69.627 50.475,70.085C49.949,70.542 49.947,71.204 49.947,71.204C49.947,71.204 49.917,75.706 49.932,76.43C49.947,77.153 49.871,77.184 49.643,77.914C49.414,78.646 48.66,79.239 48.66,79.239L48.647,79.251L48.665,79.269C50.336,81.322 52.99,82.649 55.98,82.649C58.97,82.649 61.626,81.321 63.297,79.266L63.3,79.261L63.268,79.239ZM64.323,77.663C64.844,76.598 65.134,75.413 65.134,74.167C65.134,69.484 61.036,65.686 55.98,65.686C50.924,65.686 46.825,69.484 46.825,74.167C46.825,75.409 47.104,76.597 47.621,77.66L47.63,77.652C47.741,77.537 48.086,77.081 48.123,76.687C48.16,76.294 48.19,72.015 48.231,71.751C48.272,71.486 48.454,70.613 48.734,70.187C49.013,69.76 49.648,68.893 50.338,68.45C51.029,68.009 51.45,67.987 51.897,67.993C52.344,67.998 52.639,68.074 52.973,68.256C53.309,68.441 54.055,68.922 54.269,69.705C54.482,70.486 54.512,70.796 54.492,72.167C54.472,73.537 54.492,76.574 54.492,76.574C54.492,76.574 54.507,76.885 54.654,77.133C54.801,77.382 55.081,77.722 55.411,77.833C55.741,77.945 56.178,77.945 56.508,77.833C56.839,77.722 57.118,77.382 57.265,77.133C57.412,76.885 57.427,76.574 57.427,76.574C57.427,76.574 57.448,73.537 57.427,72.167C57.407,70.796 57.438,70.486 57.651,69.705C57.864,68.922 58.611,68.441 58.946,68.256C59.281,68.074 59.576,67.998 60.023,67.993C60.469,67.987 60.891,68.009 61.581,68.45C62.272,68.893 62.907,69.76 63.186,70.187C63.465,70.613 63.648,71.486 63.689,71.751C63.729,72.015 63.759,76.294 63.797,76.687C63.834,77.081 64.178,77.537 64.29,77.652L64.313,77.662L64.323,77.663M55.98,63.21C62.511,63.21 67.806,68.115 67.806,74.167C67.806,80.219 62.511,85.125 55.98,85.125C49.448,85.125 44.153,80.219 44.153,74.167C44.153,68.115 49.448,63.21 55.98,63.21M59.774,85.165C64.918,83.703 68.441,79.415 68.441,74.167C68.441,67.79 62.876,62.62 56.01,62.62C49.145,62.62 43.579,67.79 43.579,74.167C43.579,80.545 49.145,85.715 56.01,85.715C56.438,85.715 56.861,85.694 57.278,85.656C57.826,85.605 57.804,85.67 57.917,85.67C59.747,85.605 62.552,84.984 63.142,84.809C66.938,83.691 70.176,82.123 72.691,79.746C74.426,78.108 76.02,76.356 76.942,73.955C80.974,63.45 73.342,55.943 66.012,52.995C63.896,52.143 60.489,51.229 57.44,51.213C58.698,51.324 61.002,51.92 62.67,52.714C65.472,54.051 68.213,56.505 69.706,59.141C74.464,67.535 72.278,77.18 65.486,82.424C63.967,83.596 62.718,84.362 59.856,85.235C59.663,85.285 59.56,85.244 59.56,85.244L59.774,85.165" style="fill:rgb(0,113,188);"/>
        </g>
        <g transform="matrix(1.34884,0,0,1.31806,85.9566,-668.495)">
            <path d="M303.88,1517.56L303.88,1512.43L308.228,1512.43L308.228,1517.56L329.294,1517.56L329.294,1521.75L290.112,1521.75L290.112,1535.83C290.112,1540.38 289.596,1544.89 288.664,1549.34C287.784,1553.32 286.336,1557.2 283.954,1560.52L280.538,1557.05C281.574,1555.55 283.436,1552.8 284.472,1547.78C285.766,1541.37 285.766,1538.05 285.766,1535.52L285.766,1517.56L303.88,1517.56ZM329.552,1533.14L314.284,1533.14L314.284,1554.93C314.284,1558.08 313.766,1560.36 309.212,1560.36L301.396,1560.36L300.62,1555.96L308.28,1556.01C309.212,1556.01 309.832,1555.8 309.832,1554.36L309.832,1533.14L292.856,1533.14L292.856,1529.1L329.552,1529.1L329.552,1533.14ZM184.322,1538.05C186.03,1538.88 189.238,1540.49 195.192,1544.52C198.194,1541.37 200.004,1538.62 201.144,1536.81L205.026,1538.73C204.092,1540.23 202.282,1543.07 198.556,1547.01C203.574,1550.73 206.628,1553.69 208.648,1555.65L205.646,1559.12C203.834,1557.26 200.73,1554 195.554,1549.96C190.946,1554.2 185.772,1557.77 180.078,1560.36L177.282,1556.43C179.508,1555.6 185.668,1553.32 192.138,1547.47C187.79,1544.42 184.114,1542.45 181.838,1541.26L184.322,1538.05ZM216.204,1531.48C216.05,1532.98 215.894,1535.26 215.894,1538.52C215.894,1547.68 217.55,1555.5 219.93,1555.5C221.432,1555.5 222.414,1548.87 222.674,1547.11L226.658,1549.03C225.21,1556.27 223.708,1560.21 219.878,1560.21C211.65,1560.21 211.65,1542.45 211.65,1540.12C211.65,1538 211.7,1536.61 211.754,1535.36L178.162,1535.36L178.162,1531.48L216.204,1531.48ZM247.88,1560.16L247,1556.01L252.228,1556.01C254.866,1556.01 255.746,1555.5 255.746,1551.93C255.746,1551.41 255.694,1550.58 255.644,1549.7C248.604,1554.51 239.444,1557.46 230.852,1559.43L229.402,1555.6C236.544,1554.36 245.86,1552.13 254.97,1546.08C254.712,1545.19 254.452,1544.42 254.038,1543.59C249.432,1546.7 241.514,1550.27 231.266,1552.29L229.868,1548.46C237.736,1547.42 245.446,1545.09 252.228,1540.85C251.554,1540.07 251.036,1539.61 250.416,1539.09C244.568,1542.09 238.15,1543.85 231.628,1544.94L230.334,1541.26C234.422,1540.64 243.688,1539.19 250.416,1535.11L233.646,1535.11L233.646,1524.91C232.716,1525.32 232.094,1525.58 230.904,1526.1L229.04,1522.48C233.232,1521.08 239.858,1518.34 244.982,1512.07L249.536,1512.95C248.862,1513.83 248.604,1514.09 247.568,1515.28L266.46,1515.28L266.46,1518.7C265.426,1519.89 264.752,1520.56 262.476,1522.53L274.224,1522.53L274.224,1535.11L261.648,1535.11C262.164,1537.23 262.942,1539.45 264.494,1542.3C268.116,1539.92 270.186,1538.36 272.62,1536.09L275.57,1539.19C272.672,1541.57 269.774,1543.59 266.564,1545.51C269.618,1549.6 273.758,1552.7 278.416,1554.62L275.674,1558.6C264.7,1553.22 259.526,1543.54 257.61,1535.11L256.626,1535.11C255.384,1536.09 254.608,1536.66 253.418,1537.43C255.954,1539.5 259.784,1543.8 259.784,1552.03C259.784,1557.67 258.128,1560.16 253.108,1560.16L247.88,1560.16ZM270.136,1525.84L255.8,1525.84L255.8,1531.74L270.136,1531.74L270.136,1525.84ZM251.864,1525.84L237.682,1525.84L237.682,1531.74L251.864,1531.74L251.864,1525.84ZM222.052,1527.55L186.806,1527.55L186.806,1523.82L222.052,1523.82L222.052,1527.55ZM225.624,1516.11L225.624,1519.94L187.532,1519.94C185.202,1522.99 182.976,1525.17 180.44,1527.44L177.232,1524.29C180.596,1521.65 184.528,1518.08 187.634,1511.87L192.24,1512.85C191.464,1514.14 191.05,1514.92 190.274,1516.11L225.624,1516.11ZM243.946,1518.64C242.652,1519.73 240.634,1521.18 238.304,1522.53L256.368,1522.53C258.542,1520.82 259.37,1520.09 260.56,1518.64L243.946,1518.64Z" style="fill:rgb(0,113,188);fill-rule:nonzero;"/>
        </g>
    </g>
</svg>
